#!OML:ASF E:\motion texture\Top Level 1\Subject 1\Session 1\male.ASF
:FULLY-SPECIFIED
:DEGREES
362
root -12.3074 18.1408 3.35965 541.969 -82.4901 -536.883
lowerback 1.32566 -4.92728 -1.45454
upperback -7.03801 -7.02067 -1.23087
thorax -8.10477 -3.50459 0.110239
lowerneck -11.2663 -10.3556 -16.9409
upperneck -5.75276 -12.0117 9.69167
head 1.61396 -5.74409 4.90519
rclavicle -5.1684e-015 2.38542e-015
rhumerus 35.4521 -36.3352 -1.05956
rradius 107.439
rwrist 7.21809
rhand -28.4851 -8.9061
rfingers 7.12502
rthumb -1.8544 -38.8778
lclavicle -5.1684e-015 2.38542e-015
lhumerus 51.711 14.0773 37.9214
lradius 102.198
lwrist -15.3722
lhand -33.6393 13.0774
lfingers 7.12502
lthumb -6.83133 42.9472
rfemur -28.5894 -1.75669 23.6602
rtibia 19.1096
rfoot 3.94288 -9.07075
rtoes 12.8307
lfemur 6.4718 -1.53518 -19.9434
ltibia 19.8849
lfoot -12.6261 2.01749
ltoes -24.0987
363
root -12.453 18.1448 3.3232 541.864 -82.0808 -536.749
lowerback 1.18618 -4.99456 -1.43471
upperback -7.17283 -7.115 -1.15227
thorax -8.16238 -3.55298 0.182948
lowerneck -11.3683 -10.2147 -16.9231
upperneck -5.52106 -11.808 9.37985
head 1.64881 -5.64705 4.81658
rclavicle -3.24019e-014 -9.54166e-015
rhumerus 35.7781 -36.6004 -1.02353
rradius 107.649
rwrist 6.72429
rhand -28.4061 -8.94585
rfingers 7.12502
rthumb -1.77815 -38.9182
lclavicle -3.24019e-014 -9.54166e-015
lhumerus 52.8485 14.4664 37.8278
lradius 101.959
lwrist -15.0716
lhand -33.7312 12.5835
lfingers 7.12502
lthumb -6.9201 42.4504
rfemur -28.2807 -1.40592 23.9003
rtibia 19.3841
rfoot 3.67206 -8.83654
rtoes 14.3753
lfemur 6.6654 -1.50088 -19.8846
ltibia 20.3579
lfoot -12.2972 1.93716
ltoes -24.96
364
root -12.6003 18.1486 3.28652 541.453 -81.6693 -536.303
lowerback 1.02666 -5.06167 -1.3611
upperback -7.30889 -7.20472 -1.05578
thorax -8.21373 -3.60223 0.242683
lowerneck -11.3566 -10.0692 -16.9512
upperneck -5.32772 -11.6099 9.09399
head 1.66109 -5.55359 4.74789
rclavicle -1.63003e-014 -1.51076e-014
rhumerus 36.1143 -36.8433 -1.03413
rradius 107.862
rwrist 6.3294
rhand -28.3352 -8.9124
rfingers 7.12502
rthumb -1.70969 -38.8853
lclavicle -1.63003e-014 -1.51076e-014
lhumerus 53.8083 14.7898 37.7295
lradius 101.828
lwrist -14.7394
lhand -33.8091 12.1337
lfingers 7.12502
lthumb -6.99525 41.9981
rfemur -27.9534 -1.06829 24.1826
rtibia 19.6461
rfoot 3.38002 -8.61162
rtoes 15.7488
lfemur 6.84148 -1.46183 -19.7742
ltibia 20.856
lfoot -11.9298 1.85357
ltoes -25.7952
365
root -12.7487 18.1526 3.24946 540.824 -81.2522 -535.631
lowerback 0.85192 -5.12996 -1.24693
upperback -7.44547 -7.29258 -0.940131
thorax -8.2592 -3.65285 0.29856
lowerneck -11.2841 -9.93823 -17.0021
upperneck -5.18191 -11.4387 8.84593
head 1.65777 -5.47348 4.69517
rclavicle -4.67144e-015 1.43125e-014
rhumerus 36.4642 -37.0696 -1.09912
rradius 108.079
rwrist 6.06709
rhand -28.3214 -8.88611
rfingers 7.12502
rthumb -1.69632 -38.8591
lclavicle -4.67144e-015 1.43125e-014
lhumerus 54.5905 15.0631 37.6215
lradius 101.784
lwrist -14.4913
lhand -33.9623 11.7459
lfingers 7.12502
lthumb -7.14314 41.6053
rfemur -27.6202 -0.767356 24.5106
rtibia 19.9336
rfoot 2.9895 -8.31132
rtoes 16.9331
lfemur 6.99237 -1.41103 -19.6176
ltibia 21.3857
lfoot -11.5127 1.7627
ltoes -26.6686
366
root -12.898 18.1566 3.21201 540.064 -80.8251 -534.821
lowerback 0.664202 -5.19831 -1.10191
upperback -7.58244 -7.37817 -0.808373
thorax -8.29929 -3.70417 0.35286
lowerneck -11.1986 -9.83487 -17.0493
upperneck -5.07733 -11.3076 8.62851
head 1.64723 -5.4131 4.64895
rclavicle -8.87574e-014 -2.94201e-014
rhumerus 36.8243 -37.2836 -1.21837
rradius 108.304
rwrist 5.93731
rhand -28.3368 -8.83407
rfingers 7.12502
rthumb -1.71121 -38.807
lclavicle -8.87574e-014 -2.94201e-014
lhumerus 55.215 15.3184 37.4929
lradius 101.826
lwrist -14.2833
lhand -34.1465 11.4354
lfingers 7.12502
lthumb -7.32093 41.2887
rfemur -27.2836 -0.519728 24.8812
rtibia 20.2602
rfoot 2.44789 -7.90141
rtoes 17.9139
lfemur 7.11646 -1.34701 -19.4251
ltibia 21.945
lfoot -11.0428 1.66639
ltoes -27.5334
